<svg id="Layer_1" data-name="Layer 1" xmlns="http://www.w3.org/2000/svg" width="131.6mm" height="77.1mm" viewBox="0 0 372.9 218.6">
  <defs>
    <style>
      .cls-1 {
        fill: #d2edf3;
      }

      .cls-2 {
        fill: #e8e8e8;
      }

      .cls-10, .cls-12, .cls-13, .cls-16, .cls-17, .cls-18, .cls-19, .cls-2, .cls-20, .cls-22, .cls-3, .cls-32, .cls-34, .cls-37, .cls-38, .cls-39, .cls-5, .cls-6, .cls-7 {
        stroke: #2b3990;
      }

      .cls-10, .cls-12, .cls-13, .cls-17, .cls-18, .cls-19, .cls-2, .cls-20, .cls-22, .cls-3, .cls-32, .cls-34, .cls-37, .cls-38, .cls-39, .cls-5, .cls-6, .cls-7 {
        stroke-miterlimit: 10;
      }

      .cls-3 {
        fill: #9ccbed;
      }

      .cls-4 {
        fill: #2b3990;
      }

      .cls-26, .cls-34, .cls-39, .cls-5 {
        fill: #f2efeb;
      }

      .cls-6, .cls-9 {
        fill: #f58436;
      }

      .cls-16, .cls-20, .cls-32, .cls-39, .cls-6, .cls-7 {
        stroke-width: 3px;
      }

      .cls-7 {
        fill: #f8c319;
      }

      .cls-8 {
        fill: #f9c553;
      }

      .cls-10 {
        fill: #668cc3;
      }

      .cls-10, .cls-13 {
        stroke-width: 0.75px;
      }

      .cls-11 {
        fill: #fdfeff;
      }

      .cls-12 {
        fill: #b0356c;
      }

      .cls-13, .cls-17, .cls-22 {
        fill: #fbfeff;
      }

      .cls-14 {
        fill: #f59eb4;
      }

      .cls-15 {
        fill: #aaabd6;
      }

      .cls-16, .cls-18, .cls-20, .cls-23 {
        fill: #ef385d;
      }

      .cls-16 {
        stroke-linecap: round;
        stroke-linejoin: round;
      }

      .cls-19, .cls-21 {
        fill: #edc238;
      }

      .cls-22, .cls-34, .cls-37 {
        stroke-width: 2px;
      }

      .cls-24 {
        fill: #73c8f0;
      }

      .cls-25 {
        fill: #fff;
      }

      .cls-27 {
        fill: #72c7f0;
      }

      .cls-28, .cls-29 {
        fill: #60b4e5;
      }

      .cls-29 {
        opacity: 0.49;
      }

      .cls-30 {
        fill: #e1f4fd;
      }

      .cls-31 {
        fill: #ffc430;
      }

      .cls-32, .cls-37 {
        fill: none;
      }

      .cls-33 {
        fill: #ffcf48;
      }

      .cls-35 {
        fill: #8b5f3d;
      }

      .cls-36 {
        fill: #9c775a;
      }

      .cls-38 {
        fill: #b5d77e;
        stroke-width: 0.5px;
      }
    </style>
  </defs>
  <title>عن الشركة</title>
  <g>
    <path class="cls-1" d="M246.1,468.8c-.3-1.3-27.1-21.7,2.2-55.7,0,0-21.3-39.4,20-49.4,0,0-19.9-37.9,32.2-38.2,0,0,19.1-42.8,54.1-32.8,9,6,12.4,11,12.4,11s6.6-22.6,32-22.6,33.6,11.6,35.6,17c0,0,23.7-7.7,21,17.6,0,0,12.7-.3,14.7,9.7,0,0,17.7-13.7,34-9s16.3,20.7,16.3,20.7,1-8,7.4-8,11.3,5,9,11c0,0,10.3.3,9.3,8.3,0,0,8.7-1,9,7.3s-6,10-13.3,8c0,0-2,4.4-1,4.7s22,8.7,14,38c0,0,7.6-1,8,4.3s-5.4,8.4-8,7.7c0,0,10.6,7.3,11.6,27.3s-13.3,24-13.3,24Z" transform="translate(-212 -267.1)"/>
    <rect class="cls-2" x="304.9" y="118.4" width="23.6" height="14.21" rx="5.7" ry="5.7"/>
    <circle class="cls-3" cx="313.2" cy="125.4" r="3.6"/>
    <circle class="cls-3" cx="322" cy="125.4" r="3.6"/>
    <path class="cls-4" d="M516,408.8c-7.4,0-17.9-8.8-19.5-10.4a83.2,83.2,0,0,0-10.5-7.9l.5-.9c.8.5,8,5.4,10.7,8.1s15.3,12.2,21.3,9.6,6.5-9.5,6-13.3l1-.2c.5,4.1.3,11.4-6.6,14.4A6.5,6.5,0,0,1,516,408.8Z" transform="translate(-212 -267.1)"/>
    <path class="cls-4" d="M525.3,409.3c-4.3,0-8.4-3.6-11.5-6.4l-1.7-1.4c-3.4-2.8-16.8-12.8-16.9-12.9l.5-.8c.2.1,13.6,10.1,17,12.9l1.8,1.5c3.3,2.9,7.9,7,12.3,5.9s7-9.6,6.7-14h1c.3,4.7-1.9,13.7-7.5,15.1Z" transform="translate(-212 -267.1)"/>
    <circle class="cls-1" cx="78.2" cy="41.3" r="13"/>
    <circle class="cls-1" cx="34.7" cy="75.8" r="9.5"/>
    <circle class="cls-1" cx="277.2" cy="37.8" r="6.5"/>
    <circle class="cls-1" cx="344.7" cy="145.8" r="6.5"/>
    <circle class="cls-1" cx="342.2" cy="63.3" r="12.5"/>
    <circle class="cls-1" cx="255.7" cy="41.8" r="12.5"/>
    <circle class="cls-1" cx="282.3" cy="77" r="30.3"/>
    <circle class="cls-1" cx="80.8" cy="88" r="30.3"/>
    <circle class="cls-1" cx="59.3" cy="127" r="30.3"/>
    <circle class="cls-1" cx="47.8" cy="174" r="30.3"/>
    <path class="cls-1" d="M570.1,443.1c0,16.7-13.4,29.7-30.2,29.7s-30.5-13-30.5-29.7a30.4,30.4,0,1,1,60.7,0Z" transform="translate(-212 -267.1)"/>
    <circle class="cls-1" cx="316.3" cy="128" r="30.3"/>
    <circle class="cls-1" cx="131.8" cy="54.5" r="30.3"/>
    <path class="cls-5" d="M522.3,447.2c1.1-1.5,2.7-2.2,5.1-3.4s2.2-1.7,3.3-2.5,1.9-1.6,3.3-.3,1.4,1.6,2.7,2.8a15.9,15.9,0,0,0,3.5,3.2c2,1.2,4.8,2,4.3,2.9s-2.8,6.8-2.8,8.8a46,46,0,0,1-.8,6l-15.2-.7Z" transform="translate(-212 -267.1)"/>
    <g>
      <rect class="cls-6" x="94.7" y="117.6" width="7.8" height="85.25"/>
      <rect class="cls-6" x="169.2" y="117.6" width="7.8" height="85.25"/>
      <rect class="cls-7" x="103.2" y="119.1" width="65.5" height="25.5"/>
      <path class="cls-8" d="M330.4,388.2v11.2s.7,5.9,5.9,5.9h21.9s7.7-.7,7.7-7V388.1Z" transform="translate(-212 -267.1)"/>
      <g>
        <circle class="cls-9" cx="136.5" cy="129.3" r="3.6"/>
        <path class="cls-4" d="M348.5,400.4a4,4,0,1,1,4-4A4,4,0,0,1,348.5,400.4Zm0-7.2a3.2,3.2,0,0,0-3.2,3.2,3.2,3.2,0,0,0,3.2,3.3,3.3,3.3,0,0,0,3.3-3.3A3.2,3.2,0,0,0,348.5,393.2Z" transform="translate(-212 -267.1)"/>
      </g>
      <rect class="cls-9" x="104.6" y="119.1" width="62.6" height="2.67"/>
      <g>
        <rect class="cls-7" x="103.2" y="144.8" width="65.5" height="25.5"/>
        <path class="cls-8" d="M330.4,413.9v11.3s.7,5.8,5.9,5.8h21.9s7.7-.6,7.7-7V413.8Z" transform="translate(-212 -267.1)"/>
        <g>
          <circle class="cls-9" cx="136.5" cy="155.1" r="3.6"/>
          <path class="cls-4" d="M348.5,426.2a4,4,0,0,1-4-4,4,4,0,0,1,8,0A4,4,0,0,1,348.5,426.2Zm0-7.3a3.3,3.3,0,0,0,0,6.5,3.3,3.3,0,1,0,0-6.5Z" transform="translate(-212 -267.1)"/>
        </g>
        <rect class="cls-9" x="104.6" y="144.8" width="62.6" height="2.67"/>
      </g>
      <g>
        <rect class="cls-7" x="103" y="170.3" width="65.5" height="25.5"/>
        <path class="cls-8" d="M330.2,439.4v11.3s.7,5.8,5.9,5.8H358s7.8-.6,7.8-7V439.3Z" transform="translate(-212 -267.1)"/>
        <g>
          <circle class="cls-9" cx="136.4" cy="180.6" r="3.6"/>
          <path class="cls-4" d="M348.3,451.7a4,4,0,0,1-4-4,4,4,0,0,1,8,0A4,4,0,0,1,348.3,451.7Zm0-7.3a3.3,3.3,0,0,0,0,6.5,3.3,3.3,0,1,0,0-6.5Z" transform="translate(-212 -267.1)"/>
        </g>
        <rect class="cls-9" x="104.4" y="170.3" width="62.6" height="2.67"/>
      </g>
      <rect class="cls-10" x="127.7" y="97.9" width="31.7" height="6.5"/>
      <rect class="cls-11" x="134.3" y="100.6" width="16.8" height="3.08"/>
      <rect class="cls-12" x="124.6" y="84.7" width="31.7" height="6.5"/>
      <rect class="cls-13" x="127" y="91.3" width="31.7" height="6.5"/>
      <rect class="cls-11" x="130.7" y="87.4" width="16.8" height="3.08"/>
      <rect class="cls-14" x="131.3" y="93.9" width="7.5" height="2.17"/>
      <rect class="cls-15" x="147.8" y="93.1" width="6.2" height="1.78"/>
      <rect class="cls-13" x="126.1" y="77.7" width="31.7" height="6.5"/>
      <rect class="cls-14" x="130.4" y="80.3" width="7.5" height="2.17"/>
      <rect class="cls-15" x="146.9" y="79.4" width="6.2" height="1.78"/>
      <g>
        <polygon class="cls-16" points="110.5 23 104.2 29 114.8 39.8 121.7 33.3 110.5 23"/>
        <polygon class="cls-17" points="87.9 57.2 106.5 33 111.9 38.1 93.4 62.3 87.9 57.2"/>
        <polyline class="cls-17" points="93.2 65.1 86 69 101.3 96.1 108.7 92.8 92.7 65.1"/>
        <circle class="cls-17" cx="87.4" cy="64" r="6.4"/>
        <circle class="cls-17" cx="106.5" cy="97.5" r="5.4"/>
        <rect class="cls-18" x="94.7" y="97.9" width="26" height="12.17" rx="5" ry="5"/>
        <path class="cls-19" d="M338.3,319s5,5.7,9.8,1.2c3.1-2.5,1.4-8.4-.9-9.4Z" transform="translate(-212 -267.1)"/>
        <path class="cls-20" d="M329.3,301.8a14,14,0,0,0-4.5,12.9c1.2,8.3,5.3,8.6,6.7,8.6s18.1-10.8,19.4-18.8c.4-2.2-7.2-7.4-13.5-6.3S329.3,301.8,329.3,301.8Z" transform="translate(-212 -267.1)"/>
        <g>
          <line class="cls-21" x1="104.3" y1="41.3" x2="92.5" y2="56"/>
          <path class="cls-4" d="M304.5,323.5h-.3a.5.5,0,0,1-.1-.7l11.8-14.6a.5.5,0,0,1,.7-.1.5.5,0,0,1,0,.7l-11.7,14.6A.4.4,0,0,1,304.5,323.5Z" transform="translate(-212 -267.1)"/>
        </g>
        <g>
          <line class="cls-21" x1="91.5" y1="74" x2="100.6" y2="90.4"/>
          <path class="cls-4" d="M313,357.7a.2.2,0,0,1-.2.2.5.5,0,0,1-.7-.1l-9-16.5c-.2-.2-.1-.5.2-.6a.4.4,0,0,1,.6.1l9.1,16.5A.3.3,0,0,1,313,357.7Z" transform="translate(-212 -267.1)"/>
        </g>
        <path class="cls-4" d="M295.8,334.5h-.2c0-.1-2.4-2.6-1-5.8s5.4-2.8,5.4-2.7.3.1.2.2-.1.3-.2.2-3.6-.4-4.9,2.5a4.9,4.9,0,0,0,.9,5.2.3.3,0,0,1,0,.4Z" transform="translate(-212 -267.1)"/>
      </g>
      <g>
        <rect class="cls-22" x="158.8" y="4.9" width="45.5" height="29.25" rx="5.7" ry="5.7"/>
        <g>
          <rect class="cls-23" x="163.8" y="11.2" width="16.3" height="15.25"/>
          <g>
            <rect class="cls-24" x="182.7" y="11.2" width="16.3" height="15.25"/>
            <rect class="cls-25" x="184.8" y="13.9" width="11.9" height="2"/>
            <rect class="cls-25" x="189.8" y="17.8" width="6.8" height="2"/>
          </g>
          <rect class="cls-25" x="165.6" y="15.7" width="11.9" height="2"/>
          <rect class="cls-25" x="168.2" y="19.6" width="6.8" height="2"/>
        </g>
        <rect class="cls-4" x="168" width="2.8" height="8.17" rx="1.4" ry="1.4"/>
        <rect class="cls-4" x="190.8" y="0.3" width="2.8" height="8.17" rx="1.4" ry="1.4"/>
      </g>
      <g>
        <g>
          <rect class="cls-26" x="163.6" y="41" width="78.8" height="48.96" rx="5.7" ry="5.7"/>
          <path class="cls-4" d="M448.6,358.6H381.2A7.5,7.5,0,0,1,374,351V314a7.5,7.5,0,0,1,7.2-7.6h67.4a7.4,7.4,0,0,1,7.2,7.6v37A7.4,7.4,0,0,1,448.6,358.6Zm-67.4-49A4.3,4.3,0,0,0,377,314v37a4.3,4.3,0,0,0,4.2,4.4h67.4a4.3,4.3,0,0,0,4.2-4.4V314a4.3,4.3,0,0,0-4.2-4.4Z" transform="translate(-212 -267.1)"/>
        </g>
        <g>
          <path class="cls-27" d="M444.9,353H384.6a5.9,5.9,0,0,1-5.8-6V317.7a5.9,5.9,0,0,1,5.8-6h60.3a5.9,5.9,0,0,1,5.7,6V347A5.9,5.9,0,0,1,444.9,353Z" transform="translate(-212 -267.1)"/>
          <path class="cls-4" d="M444.9,354.1H384.6a6.9,6.9,0,0,1-6.8-7.1V317.7a6.9,6.9,0,0,1,6.8-7h60.3a6.8,6.8,0,0,1,6.7,7V347A6.9,6.9,0,0,1,444.9,354.1Zm-60.3-41.3a4.8,4.8,0,0,0-4.8,4.9V347a4.8,4.8,0,0,0,4.8,5h60.3a4.8,4.8,0,0,0,4.7-5V317.7a4.8,4.8,0,0,0-4.7-4.9Z" transform="translate(-212 -267.1)"/>
        </g>
        <polygon class="cls-28" points="210 45.7 191.2 84.9 203 84.9 221.3 45.7 210 45.7"/>
        <polygon class="cls-28" points="223.3 45.7 204.5 84.9 207.5 84.9 226 45.7 223.3 45.7"/>
        <polygon class="cls-29" points="228.3 45.7 209.5 84.9 212.5 84.9 231.1 45.7 228.3 45.7"/>
        <g>
          <rect class="cls-30" x="172.1" y="47.9" width="3.5" height="4.22"/>
          <rect class="cls-30" x="178" y="47.9" width="3.5" height="4.22"/>
          <rect class="cls-30" x="177.6" y="54.8" width="3.5" height="4.22"/>
          <rect class="cls-30" x="177.6" y="61.3" width="3.5" height="4.22"/>
          <rect class="cls-30" x="172.1" y="54.4" width="3.5" height="4.22"/>
          <rect class="cls-30" x="172.1" y="61.1" width="3.5" height="4.22"/>
          <rect class="cls-30" x="172.1" y="67.6" width="3.5" height="4.22"/>
          <rect class="cls-30" x="172.1" y="73.4" width="3.5" height="3.17"/>
        </g>
      </g>
      <g>
        <rect class="cls-18" x="206.3" y="114.8" width="12.7" height="7.42" rx="3.2" ry="3.2"/>
        <rect class="cls-4" x="210.7" y="122.2" width="2.9" height="31.58"/>
        <rect class="cls-4" x="210.7" y="151.8" width="11.2" height="2.58"/>
      </g>
      <rect class="cls-5" x="194.8" y="90.2" width="18" height="9.67"/>
      <rect class="cls-5" x="184.6" y="99.4" width="37.6" height="6.56" rx="3.3" ry="3.3"/>
      <rect class="cls-6" x="286.9" y="116.8" width="7.8" height="85.25"/>
      <g>
        <rect class="cls-26" x="223.7" y="185.7" width="45.2" height="8.08" rx="4" ry="4"/>
        <path class="cls-4" d="M476.8,461.3H439.7a4.6,4.6,0,0,1-4.6-4.5,4.7,4.7,0,0,1,4.6-4.6h37.1a4.6,4.6,0,0,1,4.5,4.6A4.5,4.5,0,0,1,476.8,461.3Zm-37.1-8.1a3.6,3.6,0,1,0,0,7.1h37.1a3.6,3.6,0,0,0,0-7.1Z" transform="translate(-212 -267.1)"/>
      </g>
      <g>
        <rect class="cls-26" x="243" y="164.3" width="7.5" height="19.58"/>
        <path class="cls-4" d="M463,451.4h-8.5V430.8H463Zm-7.5-1H462V431.8h-6.5Z" transform="translate(-212 -267.1)"/>
      </g>
      <rect class="cls-5" x="238" y="157.6" width="17.7" height="7.83" rx="3.9" ry="3.9"/>
      <polygon class="cls-4" points="263.8 165.1 261.8 165.1 261.8 161.4 255.3 161.4 255.3 159.4 263.8 159.4 263.8 165.1"/>
      <g>
        <path class="cls-23" d="M434,423.4h49.7s0-9.8-10-9.8H443S433.5,414.2,434,423.4Z" transform="translate(-212 -267.1)"/>
        <path class="cls-4" d="M484.7,424.5H433.1v-.9a9.7,9.7,0,0,1,2.3-7.2c2.8-3.3,7.5-3.6,7.7-3.6h30.7c10.9,0,11,10.7,11,10.8ZM435,422.4h47.6c-.3-2.3-1.8-7.8-8.9-7.8H443C442.8,414.7,435.2,415.3,435,422.4Z" transform="translate(-212 -267.1)"/>
      </g>
      <g>
        <circle class="cls-26" cx="246.6" cy="186.4" r="4.8"/>
        <path class="cls-4" d="M458.5,449.2a4.3,4.3,0,1,1-4.3,4.3,4.4,4.4,0,0,1,4.3-4.3m0-1a5.3,5.3,0,0,0-5.3,5.3,5.4,5.4,0,1,0,5.3-5.3Z" transform="translate(-212 -267.1)"/>
      </g>
      <path class="cls-4" d="M440.7,460.8a8.7,8.7,0,0,0-2.2,5.7s-2.9.3-3,1.5a17.7,17.7,0,0,0,0,2.5h7.9v-2.6s0-1.4-2.7-1.2c0,0,.3-5,2.8-5.7Z" transform="translate(-212 -267.1)"/>
      <path class="cls-4" d="M477.2,460.8a8.8,8.8,0,0,1,2.1,5.7s2.9.3,3,1.5a17.7,17.7,0,0,1,0,2.5h-7.9v-2.6s0-1.4,2.7-1.2c0,0-.3-5-2.8-5.7Z" transform="translate(-212 -267.1)"/>
      <g>
        <rect class="cls-4" x="245.4" y="193.7" width="3.1" height="6.31"/>
        <rect class="cls-4" x="243.3" y="199.6" width="7.1" height="4"/>
      </g>
      <g>
        <rect class="cls-18" x="486.3" y="381.9" width="12.7" height="7.42" rx="3.2" ry="3.2" transform="translate(773.4 504.2) rotate(-180)"/>
        <rect class="cls-4" x="491.8" y="389.2" width="2.9" height="31.58" transform="translate(774.5 543) rotate(-180)"/>
        <rect class="cls-4" x="483.5" y="418.8" width="11.2" height="2.58" transform="translate(766.2 573.2) rotate(-180)"/>
      </g>
      <g>
        <g>
          <rect class="cls-31" x="86.2" y="106.1" width="217" height="10.75"/>
          <rect class="cls-32" x="86.2" y="106.1" width="217" height="10.75"/>
        </g>
        <rect class="cls-9" x="87.6" y="111.8" width="213.8" height="4"/>
      </g>
      <circle class="cls-22" cx="250.4" cy="23.4" r="13.8"/>
      <circle class="cls-33" cx="250.4" cy="23.3" r="10.2"/>
      <g>
        <polygon class="cls-25" points="249.5 16.9 250.2 16 250.9 17 250.8 22.7 257.7 30.5 250.2 23.3 249.5 16.9"/>
        <circle class="cls-25" cx="250.5" cy="23.2" r="1.8"/>
      </g>
      <g>
        <rect class="cls-34" x="279.1" y="82.8" width="17.1" height="21.88" rx="5.7" ry="5.7"/>
        <path class="cls-4" d="M508.9,367h-.1l-1.1-.7.2-12.1h.5c2.2-.2,3.9.5,4.8,2s.6,7.2-.1,8.5A4.6,4.6,0,0,1,508.9,367Zm-.2-1.2.3.2a3.6,3.6,0,0,0,3.2-1.9c.7-1.2,1.6-5.3.2-7.5a3.8,3.8,0,0,0-3.5-1.5Z" transform="translate(-212 -267.1)"/>
        <path class="cls-35" d="M505.8,361.8s-1.4-.9-2.2-.7-5.4,2-7.1,1-4.4-.3-4.4-.3-.6,5.9.6,7.1,1.3,2.5,4.1,2.5,6.3.3,7.9-.7,2.5-2.4,2.5-5.1,0-4.3,0-4.3Z" transform="translate(-212 -267.1)"/>
        <path class="cls-36" d="M492.8,362.2h.1a2.8,2.8,0,0,1,1.8,0c.5.3.1,1.1-.2.9a1.5,1.5,0,0,0-1.2-.2C492.8,363,491.9,362.6,492.8,362.2Z" transform="translate(-212 -267.1)"/>
        <path class="cls-36" d="M498,363.1h.1a2.8,2.8,0,0,1,1.8,0c.5.4.1,1.1-.2,1a1.2,1.2,0,0,0-1.2-.2C498.1,364,497.1,363.6,498,363.1Z" transform="translate(-212 -267.1)"/>
        <path class="cls-36" d="M502.7,361.9h.1c.5,0,1.3-.3,1.8.1s.1,1-.2.9a1.5,1.5,0,0,0-1.2-.2C502.8,362.7,501.8,362.3,502.7,361.9Z" transform="translate(-212 -267.1)"/>
      </g>
      <path class="cls-4" d="M545.5,438l-3.9,28.7H525.1l-4-28.8h24.4m3.4-3H517.6l4.9,34.8h21.8l4.6-34.7Z" transform="translate(-212 -267.1)"/>
      <rect class="cls-4" x="309.1" y="174.6" width="24.8" height="1"/>
      <rect class="cls-4" x="309.1" y="178.6" width="24.8" height="1"/>
      <rect class="cls-4" x="309" y="181.8" width="24.8" height="1"/>
      <rect class="cls-4" x="309" y="185.1" width="24.8" height="1"/>
      <rect class="cls-4" x="308.9" y="188.4" width="24.8" height="1"/>
      <rect class="cls-4" x="310.6" y="192.1" width="22.6" height="1"/>
      <rect class="cls-4" x="310.1" y="195.9" width="22.6" height="1"/>
      <rect class="cls-4" x="308.5" y="170.5" width="26" height="1"/>
      <rect class="cls-4" x="320.7" y="171" width="1" height="29.94"/>
      <rect class="cls-4" x="325.1" y="171" width="1" height="29.94"/>
      <rect class="cls-4" x="329" y="171.1" width="1" height="29.94"/>
      <rect class="cls-4" x="317.1" y="171" width="1" height="29.94"/>
      <rect class="cls-4" x="312.7" y="171" width="1" height="29.94"/>
      <g>
        <rect class="cls-26" x="302.6" y="164" width="36.7" height="4" rx="1.7" ry="1.7"/>
        <path class="cls-4" d="M549.5,431.6a1.2,1.2,0,0,1,1.2,1.2v.6a1.2,1.2,0,0,1-1.2,1.2H516.3a1.3,1.3,0,0,1-1.3-1.2v-.6a1.2,1.2,0,0,1,1.3-1.2h33.2m0-1H516.3a2.2,2.2,0,0,0-2.3,2.2v.6a2.2,2.2,0,0,0,2.3,2.2h33.2a2.2,2.2,0,0,0,2.2-2.2v-.6a2.2,2.2,0,0,0-2.2-2.2Z" transform="translate(-212 -267.1)"/>
      </g>
      <path class="cls-4" d="M505.5,348.8h-.4a1.1,1.1,0,0,1-.5-1.4c.3-.6-.1-2.5-.5-4l-.3-1.6c-.6-2.8.8-4.6,3.3-7.5a2.7,2.7,0,0,0,.6-1.4c-.1-.8-1-1.4-1.5-1.8l-.7-.5a1.1,1.1,0,0,1,.3-1.4,1,1,0,0,1,1.3.1l.2.2a5.3,5.3,0,0,1,2.4,3.1,3.8,3.8,0,0,1-1.1,2.9c-2.4,3-3.3,4.1-2.9,5.9s.3,1,.4,1.5c.5,2.1,1,4.1.3,5.4A1,1,0,0,1,505.5,348.8Zm1.7-19.5Z" transform="translate(-212 -267.1)"/>
      <path class="cls-4" d="M499.6,337.5c-.6-1.3-.2-3.3.3-5.4a8.3,8.3,0,0,0,.4-1.5c.4-1.8-.5-2.9-2.9-5.9a3.7,3.7,0,0,1-1-3,4.8,4.8,0,0,1,2.3-3.1h.2a.9.9,0,0,1,1.3-.2,1.1,1.1,0,0,1,.3,1.4l-.7.6c-.5.3-1.4,1-1.5,1.7a2.4,2.4,0,0,0,.6,1.4c2.5,3,3.9,4.7,3.3,7.6l-.3,1.5c-.4,1.5-.8,3.4-.5,4.1a1.1,1.1,0,0,1-.4,1.3h-.5A1.1,1.1,0,0,1,499.6,337.5Zm-.8-18.9Z" transform="translate(-212 -267.1)"/>
      <path class="cls-4" d="M505.2,328.9H505a1.1,1.1,0,0,1-.8-1.2,3.5,3.5,0,0,0-.8-2.9,1,1,0,0,1,0-1.4,1.1,1.1,0,0,1,1.4-.1,6,6,0,0,1,1.4,4.7A1.2,1.2,0,0,1,505.2,328.9Z" transform="translate(-212 -267.1)"/>
      <path class="cls-4" d="M494,337.3a.7.7,0,0,1-.6-.3c-2.4-2.2-1.2-6-.9-6.8a3.7,3.7,0,0,0-.8-2.8,1.1,1.1,0,0,1-.1-1.4,1,1,0,0,1,1.4,0,5,5,0,0,1,1.4,4.7v.2s-1.3,3.2.3,4.6a1.2,1.2,0,0,1,.1,1.5A1.1,1.1,0,0,1,494,337.3Zm-.6-6.8h0Z" transform="translate(-212 -267.1)"/>
      <path class="cls-4" d="M495.9,348.1h-.1a1,1,0,0,1-.8-1.2c.2-1.4-.4-2-1.5-2.9a5.7,5.7,0,0,1-1.1-1.1c-.7-.8-1.3-2.2,0-4.4h0a1.1,1.1,0,0,1,.9-.6,1,1,0,0,1,1,1,1.4,1.4,0,0,1-.2.7c-.5.9-.6,1.5-.2,2l.9.9c1.1.9,2.6,2.2,2.1,4.8A1,1,0,0,1,495.9,348.1Z" transform="translate(-212 -267.1)"/>
      <path class="cls-4" d="M499.5,347.6c-.2,0-.4,0-.5-.2a.9.9,0,0,1-.3-1.3c.4-.7.2-1.3-.7-2.8v-.2c-1-1.8.5-3.6,1.5-4.3a1,1,0,1,1,1.2,1.6h0c-.1,0-1.4,1-.9,1.8h0c.9,1.6,1.8,3.2.7,4.9A1.1,1.1,0,0,1,499.5,347.6Z" transform="translate(-212 -267.1)"/>
      <polyline class="cls-37" points="50.4 105.8 50.4 155.7 50.8 138.5 44.9 138.5 44.9 134.8"/>
      <line class="cls-37" x1="59.7" y1="96.5" x2="59.7" y2="155.8"/>
      <polyline class="cls-37" points="68.6 103.4 68.6 155.9 68.9 122.8 75.9 122.8 75.9 117.1"/>
      <g>
        <path class="cls-38" d="M262,383.3s.1-3.6-5.5-3.2C256.5,380.1,258.9,387.5,262,383.3Z" transform="translate(-212 -267.1)"/>
        <path class="cls-38" d="M263,383.4s-.2-3.6,5.5-3.3C268.5,380.1,266,387.5,263,383.4Z" transform="translate(-212 -267.1)"/>
      </g>
      <g>
        <path class="cls-38" d="M271.2,392.2s.2-3.6-5.5-3.3C265.7,388.9,268.1,396.3,271.2,392.2Z" transform="translate(-212 -267.1)"/>
        <path class="cls-38" d="M272.2,392.2s-.2-3.6,5.5-3.3C277.7,388.9,275.3,396.4,272.2,392.2Z" transform="translate(-212 -267.1)"/>
      </g>
      <g>
        <path class="cls-38" d="M271.3,405.4s.2-3.6-5.5-3.2C265.8,402.2,268.2,409.6,271.3,405.4Z" transform="translate(-212 -267.1)"/>
        <path class="cls-38" d="M272.3,405.4s-.2-3.5,5.5-3.2C277.8,402.2,275.4,409.6,272.3,405.4Z" transform="translate(-212 -267.1)"/>
      </g>
      <g>
        <path class="cls-38" d="M280,399.6s.1-3.6-5.5-3.3C274.5,396.3,276.9,403.7,280,399.6Z" transform="translate(-212 -267.1)"/>
        <path class="cls-38" d="M281,399.6s-.2-3.6,5.5-3.2C286.5,396.4,284,403.8,281,399.6Z" transform="translate(-212 -267.1)"/>
      </g>
      <g>
        <path class="cls-38" d="M280.1,413.3s.2-3.6-5.5-3.2C274.6,410.1,277,417.5,280.1,413.3Z" transform="translate(-212 -267.1)"/>
        <path class="cls-38" d="M281.1,413.4s-.1-3.6,5.5-3.3C286.6,410.1,284.2,417.5,281.1,413.4Z" transform="translate(-212 -267.1)"/>
      </g>
      <g>
        <path class="cls-38" d="M262.2,416.9s.2-3.6-5.5-3.2C256.7,413.7,259.1,421.1,262.2,416.9Z" transform="translate(-212 -267.1)"/>
        <path class="cls-38" d="M263.2,416.9s-.2-3.5,5.5-3.2C268.7,413.7,266.3,421.1,263.2,416.9Z" transform="translate(-212 -267.1)"/>
      </g>
      <path class="cls-38" d="M280,380.1s.1-3.6-5.5-3.3C274.5,376.8,276.9,384.2,280,380.1Z" transform="translate(-212 -267.1)"/>
      <g>
        <path class="cls-18" d="M260.6,372.9s.3-3.6-.8-4.1a2.3,2.3,0,0,1-1.5-1.3s1.5-4.8,4.5-4.7,4,3.4,4.1,4.2a3.8,3.8,0,0,0-1.5,2.2c-.1,1.2-.8,1.4-1,2.1a7.7,7.7,0,0,1-1,2.2Z" transform="translate(-212 -267.1)"/>
        <path class="cls-18" d="M263.1,373.8s3.7.1,5.3-2.7-.3-6.9-4.5-3.7C262.2,368.8,266.2,370.5,263.1,373.8Z" transform="translate(-212 -267.1)"/>
        <path class="cls-18" d="M262.7,374.2s-3.6,0-5.2-2.8.1-6.3,3.8-4.4C263.3,368.1,259.6,370.8,262.7,374.2Z" transform="translate(-212 -267.1)"/>
      </g>
      <g>
        <path class="cls-18" d="M254,401.3s.4-3.4-.7-3.8a2.3,2.3,0,0,1-1.4-1.3s1.4-4.5,4.2-4.4,3.8,3.2,3.9,3.9a3.4,3.4,0,0,0-1.4,2.1c-.1,1.2-.8,1.3-.9,2a8.2,8.2,0,0,1-1,2.1Z" transform="translate(-212 -267.1)"/>
        <path class="cls-18" d="M256.4,402.2s3.5.1,5-2.6-.2-6.5-4.2-3.5C255.6,397.4,259.3,399,256.4,402.2Z" transform="translate(-212 -267.1)"/>
        <path class="cls-18" d="M256.1,402.5s-3.5.1-5-2.6.2-5.9,3.6-4.1S253.2,399.3,256.1,402.5Z" transform="translate(-212 -267.1)"/>
      </g>
      <g>
        <path class="cls-18" d="M285.5,383.8s.3-3.4-.8-3.8a2.3,2.3,0,0,1-1.4-1.3s1.4-4.5,4.2-4.4,3.8,3.2,3.9,3.9a3.9,3.9,0,0,0-1.4,2.1c-.1,1.2-.8,1.3-.9,2a8.2,8.2,0,0,1-1,2.1Z" transform="translate(-212 -267.1)"/>
        <path class="cls-18" d="M287.9,384.7s3.4.1,4.9-2.6-.2-6.5-4.2-3.5C287,379.9,290.8,381.5,287.9,384.7Z" transform="translate(-212 -267.1)"/>
        <path class="cls-18" d="M287.5,385s-3.5.1-5-2.6.2-5.9,3.7-4.1C288,379.3,284.6,381.8,287.5,385Z" transform="translate(-212 -267.1)"/>
      </g>
      <g>
        <path class="cls-18" d="M278.5,370.4s.3-3.4-.8-3.8a2.3,2.3,0,0,1-1.4-1.3s1.4-4.5,4.2-4.4,3.8,3.1,3.9,3.9a3.9,3.9,0,0,0-1.4,2.1c-.1,1.1-.8,1.3-.9,2a8.2,8.2,0,0,1-1,2.1Z" transform="translate(-212 -267.1)"/>
        <path class="cls-18" d="M280.9,371.3s3.4,0,4.9-2.6-.2-6.5-4.2-3.5C280,366.5,283.8,368.1,280.9,371.3Z" transform="translate(-212 -267.1)"/>
        <path class="cls-18" d="M280.5,371.6s-3.5,0-5-2.6.2-6,3.7-4.1C281,365.8,277.6,368.4,280.5,371.6Z" transform="translate(-212 -267.1)"/>
      </g>
      <g>
        <path class="cls-18" d="M270,362.2s.4-3.4-.7-3.8a2.3,2.3,0,0,1-1.4-1.3s1.4-4.5,4.2-4.4,3.8,3.2,3.9,3.9a3.4,3.4,0,0,0-1.4,2.1c-.1,1.2-.8,1.3-.9,2.1a7.1,7.1,0,0,1-1,2Z" transform="translate(-212 -267.1)"/>
        <path class="cls-18" d="M272.4,363.1s3.5.1,5-2.6-.2-6.5-4.2-3.5C271.6,358.3,275.3,360,272.4,363.1Z" transform="translate(-212 -267.1)"/>
        <path class="cls-18" d="M272.1,363.4s-3.5.1-5-2.6.2-5.9,3.6-4.1S269.2,360.3,272.1,363.4Z" transform="translate(-212 -267.1)"/>
      </g>
      <g>
        <rect class="cls-26" x="42.4" y="155.6" width="34.3" height="5.42" rx="2.6" ry="2.6"/>
        <path class="cls-4" d="M286,423.2a2.1,2.1,0,0,1,2.1,2.1h0a2.1,2.1,0,0,1-2.1,2.2H257a2.1,2.1,0,0,1-2.1-2.2h0a2.1,2.1,0,0,1,2.1-2.1h29m0-1H257a3.1,3.1,0,0,0-3.1,3.1h0a3.1,3.1,0,0,0,3.1,3.2h29a3.1,3.1,0,0,0,3.1-3.2h0a3.1,3.1,0,0,0-3.1-3.1Z" transform="translate(-212 -267.1)"/>
      </g>
      <polygon class="cls-5" points="50 202.5 48 161 72.2 161.4 69.8 202.6 50 202.5"/>
      <rect class="cls-4" x="18.7" y="201.8" width="340" height="4.25" rx="2.1" ry="2.1"/>
      <rect class="cls-4" x="362.4" y="202.6" width="10.5" height="4.25" rx="2.1" ry="2.1"/>
      <rect class="cls-4" x="238.4" y="213.8" width="10.5" height="4.25" rx="2.1" ry="2.1"/>
      <rect class="cls-4" x="69.7" y="213.2" width="15.9" height="4.25" rx="2.1" ry="2.1"/>
      <rect class="cls-4" y="201.8" width="13.3" height="4.25" rx="2.1" ry="2.1"/>
      <rect class="cls-4" x="56.8" y="213.3" width="10.1" height="4.25" rx="2.1" ry="2.1"/>
      <rect class="cls-4" x="186.2" y="213.8" width="47.4" height="4.25" rx="2.1" ry="2.1"/>
      <rect class="cls-4" x="254.2" y="213.8" width="54.5" height="4.75" rx="2.4" ry="2.4"/>
      <rect class="cls-4" x="91.7" y="213.1" width="89.9" height="4.75" rx="2.4" ry="2.4"/>
      <path class="cls-34" d="M445.3,412.1s-12.7-2.4-13.2-20,2.1-47.8,21.3-47.8h14.5c8.2.2,19.2,13.7,18.6,31.2-.5,13,1.1,19.2-2.2,25.6s-9,12.3-24,11.6Z" transform="translate(-212 -267.1)"/>
      <rect class="cls-39" x="243" y="102.5" width="7.5" height="54"/>
    </g>
  </g>
</svg>
